<svg xmlns="http://www.w3.org/2000/svg" xmlns:xlink="http://www.w3.org/1999/xlink" width="500" zoomAndPan="magnify" viewBox="0 0 375 374.999991" height="500" preserveAspectRatio="xMidYMid meet" version="1.0"><defs><g/><clipPath id="d6fb921f26"><path d="M 112.5 88 L 253 88 L 253 175 L 112.5 175 Z M 112.5 88 " clip-rule="nonzero"/></clipPath><clipPath id="af1218b17b"><path d="M 120 132 L 250 132 L 250 221.136719 L 120 221.136719 Z M 120 132 " clip-rule="nonzero"/></clipPath><clipPath id="67f6bf16ba"><path d="M 141 137 L 211 137 L 211 221.136719 L 141 221.136719 Z M 141 137 " clip-rule="nonzero"/></clipPath></defs><rect x="-37.5" width="450" fill="#ffffff" y="-37.499999" height="449.999989" fill-opacity="1"/><rect x="-37.5" width="450" fill="#ffffff" y="-37.499999" height="449.999989" fill-opacity="1"/><g clip-path="url(#d6fb921f26)"><path fill="#004aad" d="M 130.457031 118.140625 C 152.949219 119.511719 177.457031 117.746094 200.242188 118.351562 C 210.144531 118.613281 218.304688 125.046875 215.996094 135.859375 C 213.65625 146.808594 204.261719 147.835938 192.097656 148.214844 C 201.632812 153.632812 225.917969 174.574219 226.332031 174.804688 C 262.488281 157.472656 257.550781 109.761719 231.371094 94.699219 C 216.496094 86.136719 194.121094 88.585938 175.050781 88.585938 C 154.324219 88.585938 133.1875 88.980469 112.511719 88.539062 C 113.035156 92.207031 127.445312 109.007812 130.457031 118.140625 Z M 130.457031 118.140625 " fill-opacity="1" fill-rule="evenodd"/></g><g clip-path="url(#af1218b17b)"><path fill="#000000" d="M 120.738281 220.921875 L 151.945312 221.191406 C 155.910156 201.613281 158.234375 193.796875 153.226562 172.808594 C 151.519531 165.644531 149.128906 159.230469 146.253906 152.726562 C 143.625 146.773438 138.214844 138.769531 137.035156 134.199219 C 147.925781 137.898438 160.082031 145.273438 169.84375 151.386719 L 195.140625 170.601562 C 207.984375 183.097656 215.910156 190.054688 225.074219 206.464844 C 227.09375 210.078125 230.550781 218.984375 232.136719 221.308594 L 249.320312 221.371094 C 248.4375 214.125 235.507812 195.164062 231.246094 189.664062 C 209.636719 161.796875 174.746094 135.1875 135.730469 132.179688 C 135.566406 143.703125 147.621094 169.804688 132.285156 203.070312 C 127.554688 213.324219 122.957031 216.039062 120.738281 220.921875 Z M 120.738281 220.921875 " fill-opacity="1" fill-rule="evenodd"/></g><g clip-path="url(#67f6bf16ba)"><path fill="#000000" d="M 175.1875 221.386719 L 210.964844 221.441406 C 209.671875 209.089844 188.710938 181.621094 182.738281 174.273438 C 166.675781 154.523438 147.628906 143.628906 141.835938 137.414062 C 156.679688 163.632812 172.039062 156.878906 175.1875 221.386719 Z M 175.1875 221.386719 " fill-opacity="1" fill-rule="evenodd"/></g><g fill="#004aad" fill-opacity="1"><g transform="translate(136.939851, 242.697524)"><g><path d="M 4.65625 10.09375 L 0 4.46875 L 0 3.921875 C 2.09375 2.984375 3.765625 1.875 5.015625 0.59375 C 6.273438 -0.675781 7.179688 -2 7.734375 -3.375 C 8.296875 -4.75 8.578125 -5.992188 8.578125 -7.109375 C 8.578125 -8.085938 8.492188 -9.300781 8.328125 -10.75 C 8.160156 -12.195312 7.867188 -13.773438 7.453125 -15.484375 L 14.4375 -16.96875 C 14.769531 -15.3125 15.035156 -13.644531 15.234375 -11.96875 C 15.429688 -10.300781 15.53125 -8.601562 15.53125 -6.875 C 15.53125 -4.332031 15.085938 -1.957031 14.203125 0.25 C 13.328125 2.46875 12.078125 4.414062 10.453125 6.09375 C 8.835938 7.769531 6.90625 9.101562 4.65625 10.09375 Z M 4.65625 10.09375 "/></g></g></g><g fill="#004aad" fill-opacity="1"><g transform="translate(153.279896, 242.697524)"><g><path d="M 14.859375 -9.046875 L 13.890625 0 L 10.828125 0 C 8.753906 0 7.078125 -0.332031 5.796875 -1 C 4.515625 -1.675781 3.570312 -2.742188 2.96875 -4.203125 C 2.363281 -5.671875 2.035156 -7.609375 1.984375 -10.015625 L 1.625 -30.390625 L 10.046875 -30.8125 C 10.023438 -29.46875 10.003906 -28.03125 9.984375 -26.5 C 9.972656 -24.976562 9.953125 -23.457031 9.921875 -21.9375 C 9.898438 -20.425781 9.882812 -19.039062 9.875 -17.78125 C 9.863281 -16.53125 9.859375 -15.503906 9.859375 -14.703125 C 9.859375 -13.898438 9.859375 -13.4375 9.859375 -13.3125 C 9.859375 -11.8125 10.113281 -10.722656 10.625 -10.046875 C 11.144531 -9.378906 11.910156 -9.046875 12.921875 -9.046875 Z M 14.859375 -9.046875 "/></g></g></g><g fill="#004aad" fill-opacity="1"><g transform="translate(166.709011, 242.697524)"><g><path d="M -0.578125 -9.046875 L 10.28125 -9.046875 L 9.3125 0 L -1.546875 0 Z M -0.578125 -9.046875 "/></g></g></g><g fill="#004aad" fill-opacity="1"><g transform="translate(175.441814, 242.697524)"><g><path d="M -0.578125 -9.046875 L 10.28125 -9.046875 L 9.3125 0 L -1.546875 0 Z M -0.578125 -9.046875 "/></g></g></g><g fill="#004aad" fill-opacity="1"><g transform="translate(184.174616, 242.697524)"><g><path d="M -0.578125 -9.046875 L 10.28125 -9.046875 L 9.3125 0 L -1.546875 0 Z M -0.578125 -9.046875 "/></g></g></g><g fill="#004aad" fill-opacity="1"><g transform="translate(192.907419, 242.697524)"><g><path d="M -0.46875 -9.046875 L 0.703125 -9.046875 C 1.992188 -9.046875 2.960938 -9.296875 3.609375 -9.796875 C 4.253906 -10.304688 4.578125 -11 4.578125 -11.875 L 4.578125 -15.5625 L 11.0625 -15.5625 L 11.0625 -12.34375 C 11.0625 -11.15625 11.300781 -10.304688 11.78125 -9.796875 C 12.257812 -9.296875 12.898438 -9.046875 13.703125 -9.046875 C 14.523438 -9.046875 15.160156 -9.320312 15.609375 -9.875 C 16.066406 -10.4375 16.296875 -11.179688 16.296875 -12.109375 L 16.296875 -15.53125 L 22.78125 -15.53125 L 22.78125 -12.296875 C 22.78125 -11.191406 22.953125 -10.382812 23.296875 -9.875 C 23.648438 -9.375 24.164062 -9.125 24.84375 -9.125 C 25.59375 -9.125 26.144531 -9.351562 26.5 -9.8125 C 26.863281 -10.28125 27.046875 -11.125 27.046875 -12.34375 L 27.046875 -15.53125 L 33.375 -15.53125 L 33.375 -12.375 C 33.375 -11.1875 33.632812 -10.332031 34.15625 -9.8125 C 34.675781 -9.300781 35.765625 -9.046875 37.421875 -9.046875 L 38.5 -9.046875 L 37.53125 0 L 36.484375 0 C 35.265625 0 34.070312 -0.160156 32.90625 -0.484375 C 31.75 -0.804688 30.796875 -1.445312 30.046875 -2.40625 C 29.441406 -1.601562 28.660156 -0.972656 27.703125 -0.515625 C 26.753906 -0.0664062 25.65625 0.15625 24.40625 0.15625 C 23.164062 0.15625 22.066406 -0.0390625 21.109375 -0.4375 C 20.148438 -0.84375 19.375 -1.5 18.78125 -2.40625 C 18.21875 -1.53125 17.46875 -0.890625 16.53125 -0.484375 C 15.601562 -0.0859375 14.566406 0.109375 13.421875 0.109375 C 12.054688 0.109375 10.847656 -0.09375 9.796875 -0.5 C 8.753906 -0.914062 7.910156 -1.65625 7.265625 -2.71875 C 6.609375 -1.726562 5.675781 -1.023438 4.46875 -0.609375 C 3.269531 -0.203125 1.972656 0 0.578125 0 L -1.390625 0 Z M -0.46875 -9.046875 "/></g></g></g><g fill="#004aad" fill-opacity="1"><g transform="translate(230.012126, 242.697524)"><g><path d="M 0.03125 0 L -1.390625 0 L -0.46875 -9.046875 L 0.890625 -9.046875 C 1.535156 -9.046875 2.097656 -9.128906 2.578125 -9.296875 C 3.054688 -9.460938 3.546875 -9.8125 4.046875 -10.34375 C 4.554688 -10.875 5.175781 -11.65625 5.90625 -12.6875 C 7.09375 -14.375 8.191406 -15.671875 9.203125 -16.578125 C 10.210938 -17.484375 11.234375 -18.101562 12.265625 -18.4375 C 13.296875 -18.769531 14.421875 -18.9375 15.640625 -18.9375 C 17.347656 -18.9375 18.785156 -18.535156 19.953125 -17.734375 C 21.117188 -16.929688 22 -15.84375 22.59375 -14.46875 C 23.1875 -13.101562 23.484375 -11.578125 23.484375 -9.890625 C 23.484375 -8.472656 23.273438 -7.003906 22.859375 -5.484375 C 22.441406 -3.972656 21.804688 -2.535156 20.953125 -1.171875 C 20.335938 -0.210938 19.632812 0.457031 18.84375 0.84375 C 18.050781 1.238281 17.203125 1.4375 16.296875 1.4375 C 15.628906 1.4375 14.71875 1.222656 13.5625 0.796875 C 12.414062 0.367188 11.1875 -0.195312 9.875 -0.90625 C 8.570312 -1.625 7.347656 -2.410156 6.203125 -3.265625 C 5.554688 -2.359375 4.929688 -1.671875 4.328125 -1.203125 C 3.722656 -0.734375 3.082031 -0.414062 2.40625 -0.25 C 1.726562 -0.0820312 0.9375 0 0.03125 0 Z M 17.96875 -7.953125 C 17.96875 -8.992188 17.601562 -9.8125 16.875 -10.40625 C 16.15625 -11 15.316406 -11.296875 14.359375 -11.296875 C 13.679688 -11.296875 13.019531 -11.140625 12.375 -10.828125 C 11.726562 -10.515625 11.054688 -10 10.359375 -9.28125 C 11.648438 -8.445312 12.863281 -7.757812 14 -7.21875 C 15.144531 -6.675781 16.328125 -6.222656 17.546875 -5.859375 C 17.703125 -6.191406 17.8125 -6.546875 17.875 -6.921875 C 17.9375 -7.296875 17.96875 -7.640625 17.96875 -7.953125 Z M 17.96875 -7.953125 "/></g></g></g></svg>